<svg width="512" height="512" xmlns="http://www.w3.org/2000/svg" preserveAspectRatio="xMidYMid meet" class="iconify iconify--fxemoji" role="img" aria-hidden="true">

 <g>
  <title>Layer 1</title>
  <g>
   <desc>Created with Fabric.js 5.2.4</desc>
   <g>
    <title>Layer 1</title>
    <g transform="matrix(0.967154, 0, 0, 1, 539.079, 540)" id="svg_16"/>
    <g transform="matrix(0, 0, 0, 0, 16.8158, 0)" id="svg_14">
     <g id="svg_15"/>
    </g>
    <g id="svg_11">
     <path vector-effect="non-scaling-stroke" d="m511.95597,404.08249l-441.67302,0l0,-9l441.67302,0l0,9zm0,11.835l-441.67302,0l0,9l441.67302,0l0,-9z" stroke-linecap=" butt" stroke=" none" stroke-dasharray=" none" stroke-dashoffset="0" stroke-linejoin=" miter" stroke-miterlimit="4" fill=" rgb(89,123,145)" fill-rule=" nonzero" id="svg_13"/>
     <path vector-effect="non-scaling-stroke" d="m511.95599,416.72547l-441.67302,0l0,-13.727l441.67302,0l0,13.727z" stroke-linecap=" butt" stroke=" none" stroke-dasharray=" none" stroke-dashoffset="0" stroke-linejoin=" miter" stroke-miterlimit="4" fill=" rgb(43,59,71)" fill-rule=" nonzero" id="svg_12"/>
    </g>
   </g>
  </g>
  <g id="svg_34">
   <path id="svg_1" d="m511.86999,390.59681l-454.8208,0c-16.77206,0 -30.36773,-13.59568 -30.36773,-30.36773l0,-208.45815c0,-16.77206 13.59568,-30.36773 30.36773,-30.36773l441.12622,0c7.5634,0 13.69458,6.13118 13.69458,13.69458l0,255.49903z" fill="#ad346e"/>
   <path id="svg_2" d="m65.57168,295.66769l0,-118.61314c0,-11.34463 -9.19724,-20.54187 -20.54187,-20.54187l-18.39734,0l0,159.69688l18.39829,0c11.34463,0 20.54092,-9.19724 20.54092,-20.54187zm118.27363,0l0,-118.61314c0,-11.34463 -9.19724,-20.54187 -20.54187,-20.54187l-53.68181,0c-11.34463,0 -20.54187,9.19724 -20.54187,20.54187l0,118.61314c0,11.34463 9.19724,20.54187 20.54187,20.54187l53.68181,0c11.34463,0 20.54187,-9.19724 20.54187,-20.54187z" fill="#597B91"/>
   <path id="svg_3" d="m26.535,334.83419l485.33404,0l0,21.87329l-485.33404,0l0,-21.87329z" fill="#8e0f4d"/>
   <path id="svg_4" d="m208.11088,121.4032l303.75816,0l0,213.43099l-303.75816,0l0,-213.43099z" fill="#b74e83"/>
   <path id="svg_5" d="m183.89429,226.32461l-94.76555,0l0,-49.27006c0,-11.34463 9.19724,-20.54187 20.54187,-20.54187l53.68181,0c11.34463,0 20.54187,9.19724 20.54187,20.54187l0,49.27006zm-118.27363,-49.27006c0,-11.34463 -9.19724,-20.54187 -20.54187,-20.54187l-18.39734,0l0,72.36159l38.94016,0l0,-51.81972l-0.00095,0zm282.40413,72.87704l0,-72.87704c0,-11.34463 -9.19724,-20.54187 -20.54187,-20.54187l-61.47155,0c-11.34463,0 -20.54187,9.19724 -20.54187,20.54187l0,72.87704c0,11.34463 9.19724,20.54187 20.54187,20.54187l61.47155,0c11.34463,0 20.54187,-9.19724 20.54187,-20.54187zm139.86637,0l0,-72.87704c0,-11.34463 -9.19724,-20.54187 -20.54187,-20.54187l-61.47155,0c-11.34463,0 -20.54187,9.19724 -20.54187,20.54187l0,72.87704c0,11.34463 9.19724,20.54187 20.54187,20.54187l61.47155,0c11.34558,0 20.54187,-9.19724 20.54187,-20.54187z" fill="#45565B"/>
   <path id="svg_6" d="m348.02479,177.05455c0,-11.34463 -9.19724,-20.54187 -20.54187,-20.54187l-61.47155,0c-11.34463,0 -20.54187,9.19724 -20.54187,20.54187l0,34.08714l102.55529,0l0,-34.08714zm139.86637,0c0,-11.34463 -9.19724,-20.54187 -20.54187,-20.54187l-61.47155,0c-11.34463,0 -20.54187,9.19724 -20.54187,20.54187l0,34.08714l102.55529,0l0,-34.08714z" fill="#2B3B47"/>
  </g>
 </g>
</svg>